<?xml version="1.0" encoding="UTF-8"?>
<!DOCTYPE svg PUBLIC "-//W3C//DTD SVG 1.1//EN" "http://www.w3.org/Graphics/SVG/1.1/DTD/svg11.dtd">
<!-- Creator: CorelDRAW -->
<svg xmlns="http://www.w3.org/2000/svg" xml:space="preserve" width="100mm" height="13.52mm" style="shape-rendering:geometricPrecision; text-rendering:geometricPrecision; image-rendering:optimizeQuality; fill-rule:evenodd; clip-rule:evenodd"
viewBox="0 0 100 13.52"
 xmlns:xlink="http://www.w3.org/1999/xlink">
 <defs>
  <style type="text/css">
   <![CDATA[
    .fil2 {fill:white}
    .fil1 {fill:#003155;fill-rule:nonzero}
    .fil0 {fill:#D9DADB;fill-rule:nonzero}
   ]]>
  </style>
 </defs>
<symbol id="Fm0-2213-0" viewBox="229.008 -204.982 33.0665 208.667">
 <polygon class="fil0" points="248.208,3.6848 261.731,3.6848 261.731,-204.982 248.208,-204.982 "/>
 <polygon class="fil1" points="229.008,-96.4483 262.075,-96.4483 262.075,-104.848 229.008,-104.848 "/>
</symbol>
 <g id="Camada_x0020_1">
  <metadata id="CorelCorpID_0Corel-Layer"/>
  <path class="fil2" d="M100 13.52l-100 0 0 -13.52 100 0 0 13.52zm-12.8931 -3.8344l0 1.0908 12.2669 -0.1929 0 2.3103 -12.2676 0 0 -12.2676 12.2676 0 0 4.5465 -0.4275 -0.0147 0.0134 -3.6716 -1.05 0.0194 0.0082 0.0105 -0.1262 0.6647 -0.0199 -0.6729 -0.1492 0.0022 0.0006 1.5225 0.1166 1.4545 -0.0764 2.2623 0.0787 2.936 -0.7688 0c-0.8058,-0.6232 -2.0656,-1.2872 -2.8464,-1.5825 -1.9952,-0.7541 -3.4785,-0.1855 -5.608,1.5825l-0.5038 0 -0.0854 -0.0719 -0.0356 0.0965 -0.1024 0.049 -0.0749 -0.0995 -0.1685 0.0602 -0.0414 0.0044 -0.4 -0.0387zm12.2669 -0.0029l-0.2732 0.0029c-0.0208,-0.9297 -0.1499,-3.7618 -0.1113,-3.954l0.3845 0.0088 0 3.9423zm0 -4.2123l-0.4185 0.0067 -0.012 -0.1826 0.4305 0.003 0 0.1729zm-83.9306 -0.753c-0.273,-0.308 -0.6989,-0.4899 -1.2094,-0.4899 -0.7629,0 -1.3987,0.4966 -1.3987,1.1539 0,0.6924 0.4541,0.9936 0.86,1.3083 0.3984,0.2938 1.1331,0.6922 1.1331,1.3073 0,0.5452 -0.3704,0.8044 -0.8533,0.8044 -0.4617,0 -0.7761,-0.2242 -1.0635,-0.4267l-0.3003 0.4059c0.3493,0.3419 0.9088,0.5113 1.3779,0.5113 0.7826,0 1.5173,-0.5046 1.5173,-1.2807 0,-0.6293 -0.3918,-1.0775 -1.0626,-1.5666 -0.6299,-0.4547 -0.9305,-0.7136 -0.9305,-1.0632 0,-0.3769 0.2732,-0.664 0.762,-0.664 0.2939,0 0.6085,0.1743 0.8468,0.3493l0.3212 -0.3493zm3.9244 -0.406l-2.4129 0 0 4.8951 2.7134 0 0 -0.4891 -2.0345 0 0 -1.8469 1.6993 0 0 -0.4888 -1.6993 0 0 -1.5806 1.734 0 0 -0.4897zm20.3532 4.9805c1.5108,0 2.448,-1.1554 2.448,-2.6163 0,-1.3706 -1.0352,-2.4481 -2.448,-2.4481 -1.4126,0 -2.447,1.0775 -2.447,2.4481 0,1.4609 0.9364,2.6163 2.447,2.6163zm0 -0.4905c-1.2658,0 -1.6991,-1.168 -1.6991,-2.1258 0,-0.9165 0.4897,-1.9582 1.6991,-1.9582 1.2096,0 1.6992,1.0417 1.6992,1.9582 0,0.9578 -0.4333,2.1258 -1.6992,2.1258zm-7.7325 -4.49l0 4.8951 1.4551 0c1.7342,0 2.7692,-0.9722 2.7692,-2.594 0,-1.1747 -0.6856,-2.3011 -2.6571,-2.3011l-1.5672 0zm0.679 0.4897l0.9016 0c1.2867,0 1.8951,0.7065 1.8951,1.7973 0,1.4334 -0.6641,2.119 -2.0412,2.119l-0.7555 0 0 -3.9163zm-4.15 -0.4897l-1.9945 4.8951 0.6588 0 0.5239 -1.4404 1.8678 0 0.5029 1.4404 0.7837 0 -1.8254 -4.8951 -0.5172 0zm-0.6224 2.965c0.2656,-0.678 0.5245,-1.3563 0.7761,-2.237l0.0141 0c0.2448,0.8807 0.4822,1.559 0.7271,2.237l-1.5173 0zm-2.6877 -2.965l-0.5595 0 0 3.9023 -0.0141 0c-0.3287,-0.489 -2.1331,-2.6298 -3.2099,-3.9023l-0.503 0 0 4.8951 0.5595 0 0 -3.8947 0.014 0c0.2932,0.4265 2.1185,2.6222 3.1817,3.8947l0.5313 0 0 -4.8951zm22.6622 0l-2.4121 0 0 4.8951 0.6781 0 0 -2.0554 1.6993 0 0 -0.4896 -1.6993 0 0 -1.8604 1.734 0 0 -0.4897zm5.4064 0l0 4.8951 1.4551 0c1.734,0 2.769,-0.9722 2.769,-2.594 0,-1.1747 -0.6855,-2.3011 -2.6577,-2.3011l-1.5664 0zm0.679 0.4897l0.9015 0c1.2866,0 1.8951,0.7065 1.8951,1.7973 0,1.4334 -0.6641,2.119 -2.042,2.119l-0.7546 0 0 -3.9163zm-2.2321 -0.4897l-2.4123 0 0 4.8951 2.7129 0 0 -0.4891 -2.0345 0 0 -1.8469 1.699 0 0 -0.4888 -1.699 0 0 -1.5806 1.7339 0 0 -0.4897zm9.4902 0l-2.4121 0 0 4.8951 2.7127 0 0 -0.4891 -2.0346 0 0 -1.8469 1.6993 0 0 -0.4888 -1.6993 0 0 -1.5806 1.734 0 0 -0.4897zm7.4952 0l-1.994 4.8951 0.6584 0 0.5245 -1.4404 1.8669 0 0.5038 1.4404 0.7835 0 -1.8253 -4.8951 -0.5178 0zm-0.6219 2.965c0.2656,-0.678 0.5245,-1.3563 0.7761,-2.237l0.014 0c0.2442,0.8807 0.4824,1.559 0.7274,2.237l-1.5175 0zm-5.2674 1.9301l0.6781 0 0 -2.0281 0.7204 0 1.1324 2.1135 0.6857 -0.2108 -1.217 -2.0843c0.4682,-0.3006 0.8184,-0.7064 0.8184,-1.4269 0,-0.8458 -0.6226,-1.2585 -1.4195,-1.2585l-1.3985 0 0 4.8951zm0.6781 -4.4054l0.5803 0c0.4547,0 0.8325,0.2309 0.8325,0.8327 0,0.4125 -0.1611,1.0559 -1.0285,1.0559l-0.3843 0 0 -1.8886zm8.6051 4.4054l2.7127 0 0 -0.4891 -2.0346 0 0 -4.406 -0.6781 0 0 4.8951zm14.3958 3.6865l-85.8715 0 0 -12.2674 85.8715 0 0 12.2674z"/>
 </g>
</svg>
