<?xml version="1.0" encoding="UTF-8" standalone="no"?>
<svg width="173px" height="24px" viewBox="0 0 173 24" version="1.1" xmlns="http://www.w3.org/2000/svg" xmlns:xlink="http://www.w3.org/1999/xlink" xmlns:sketch="http://www.bohemiancoding.com/sketch/ns">
    <!-- Generator: Sketch 3.0.4 (8053) - http://www.bohemiancoding.com/sketch -->
    <title>logosenado_intranet</title>
    <desc>Created with Sketch.</desc>
    <defs></defs>
    <g id="Page-1" stroke="none" stroke-width="1" fill="none" fill-rule="evenodd" sketch:type="MSPage">
        <g id="logosenado_intranet" sketch:type="MSLayerGroup" transform="translate(1.000000, 0.000000)">
            <g id="Page-1" sketch:type="MSShapeGroup">
                <g id="logosenado_intranet">
                    <g id="Page-1">
                        <g id="Camada_x0020_1">
                            <rect id="Rectangle-path" fill="#013F78" x="1.04242424" y="1.04545455" width="169.879858" height="20.9663422"></rect>
                            <path d="M171.963526,23.1378883 L-0.0700873181,23.1378883 L-0.0700873181,0.0306937335 L171.963526,0.0306937335 L171.963526,23.1378883 L171.963526,23.1378883 Z M149.781605,16.5845986 L149.781605,18.4481452 L170.885862,18.1192839 L170.885862,22.0676561 L149.781605,22.0676561 L149.781605,1.10131389 L170.885862,1.10131389 L170.885862,8.87137568 L170.15066,8.84701558 L170.172728,2.57224308 L168.367215,2.60553522 L168.380701,2.62258729 L168.163288,3.75939224 L168.12855,2.60919076 L167.872721,2.61284478 L167.873947,5.2140996 L168.074197,7.70004689 L167.943013,11.5672086 L168.077875,16.5845683 L166.75582,16.5845683 C165.369197,15.5188136 163.202004,14.3844458 161.858684,13.8801911 C158.427062,12.591136 155.875301,13.5635095 152.211164,16.5845683 L151.344777,16.5845683 L151.197656,16.4619557 L151.135947,16.6263864 L150.960625,16.7100229 L150.832303,16.5407204 L150.541737,16.6438448 L150.470219,16.6511529 L149.782016,16.5849744 L149.781607,16.5845685 L149.781605,16.5845986 L149.781605,16.5845986 Z M170.885862,16.5797266 L170.415072,16.5845986 C170.379108,14.9959137 170.158017,10.1551496 170.224631,9.82629325 L170.885861,9.84212731 L170.885861,16.5797216 L170.885862,16.5797266 L170.885862,16.5797266 Z M170.885862,9.38051853 L170.165372,9.39148056 L170.14453,9.07967131 L170.88586,9.08454333 L170.88586,9.38051867 L170.885862,9.38051853 L170.885862,9.38051853 Z M26.497047,8.09390046 C26.0274834,7.56731465 25.2947312,7.25672533 24.4160865,7.25672533 C23.103841,7.25672533 22.0102321,8.10486352 22.0102321,9.22826838 C22.0102321,10.411764 22.791205,10.9261683 23.4896252,11.4637136 C24.175376,11.9659363 25.4385855,12.6472093 25.4385855,13.6979403 C25.4385855,14.6297154 24.802282,15.0730692 23.9706352,15.0730692 C23.1774005,15.0730692 22.6359116,14.6902111 22.1418246,14.3438906 L21.6252632,15.0373417 C22.2260117,15.6215776 23.1884357,15.9114629 23.9955627,15.9114629 C25.342548,15.9114629 26.6053462,15.0483047 26.6053462,13.7227084 C26.6053462,12.6472093 25.9318535,11.8810844 24.7777622,11.0451277 C23.6939619,10.2680399 23.1774005,9.8259045 23.1774005,9.22826838 C23.1774005,8.58353656 23.646964,8.09268195 24.4884231,8.09268195 C24.9939493,8.09268195 25.5350342,8.39109324 25.9441153,8.69072305 L26.4978658,8.09268195 L26.4978658,8.09389995 L26.4970486,8.09389995 L26.497047,8.09390046 L26.497047,8.09390046 Z M33.2483152,7.39923093 L29.0974295,7.39923093 L29.0974295,15.7657245 L33.7648873,15.7657245 L33.7648873,14.9297679 L30.265424,14.9297679 L30.265424,11.7735107 L33.1878398,11.7735107 L33.1878398,10.937554 L30.265424,10.937554 L30.265424,8.23682881 L33.2483223,8.23682881 L33.2483223,7.39965368 L33.2483223,7.39924768 L33.2483152,7.39923093 L33.2483152,7.39923093 Z M68.2617222,15.9118751 C70.8616972,15.9118751 72.4730761,13.9366765 72.4730761,11.4405725 C72.4730761,9.09834934 70.6924899,7.25673953 68.2617222,7.25673953 C65.8321632,7.25673953 64.0528,9.09836354 64.0528,11.4405725 C64.0528,13.9362643 65.6629703,15.9118751 68.2617222,15.9118751 L68.2617222,15.9118751 L68.2617222,15.9118751 Z M68.2617222,15.0734814 C66.0843167,15.0734814 65.3393063,13.0771702 65.3393063,11.4409988 C65.3393063,9.87464501 66.1819883,8.09310825 68.2617222,8.09310825 C70.3426827,8.09310825 71.1853647,9.87464501 71.1853647,11.4409988 C71.1853647,13.0775929 70.4403543,15.0734814 68.2617222,15.0734814 L68.2617222,15.0734814 L68.2617222,15.0734814 Z M54.9602578,7.39923093 L54.9602578,15.7657245 L57.4625575,15.7657245 C60.4466823,15.7657245 62.2264568,14.1035523 62.2264568,11.332576 C62.2264568,9.32408682 61.047438,7.39923093 57.6554405,7.39923093 L54.960247,7.39923093 L54.9602578,7.39923093 L54.9602578,7.39923093 Z M56.1278338,8.23640606 L57.6787446,8.23640606 C59.8921128,8.23640606 60.9387239,9.44426132 60.9387239,11.3082164 C60.9387239,13.7588446 59.7968942,14.9297573 57.4278177,14.9297573 L56.1278303,14.9297573 L56.1278303,8.23642738 L56.1278338,8.23640606 L56.1278338,8.23640606 Z M48.9879028,7.39923093 L45.5575077,15.7657245 L46.6907553,15.7657245 L47.5914703,13.3041368 L50.8056783,13.3041368 L51.6708383,15.7657245 L53.01905,15.7657245 L49.8775863,7.39923093 L48.9879065,7.39923093 L48.9879028,7.39923093 L48.9879028,7.39923093 Z M47.9175908,12.4669297 C48.3748963,11.3082023 48.8195324,10.1490662 49.2523145,8.64403234 L49.2768348,8.64403234 C49.6981775,10.1490804 50.1060321,11.3082164 50.5273713,12.4669297 L47.9175878,12.4669297 L47.9175908,12.4669297 L47.9175908,12.4669297 Z M43.2934728,7.39923093 L42.3318676,7.39923093 L42.3318676,14.0690431 L42.3073472,14.0690431 C41.741335,13.2330865 38.6370604,9.57461377 36.7849672,7.39923093 L35.9198072,7.39923093 L35.9198072,15.7657245 L36.8826389,15.7657245 L36.8826389,9.10934082 L36.9059333,9.10934082 C37.4114595,9.83851948 40.5512963,13.5903773 42.3801104,15.7657245 L43.2934948,15.7657245 L43.2934948,7.39923093 L43.2934728,7.39923093 L43.2934728,7.39923093 Z M82.279901,7.39923093 L78.1302312,7.39923093 L78.1302312,15.7657245 L79.2965807,15.7657245 L79.2965807,12.2534022 L82.2202231,12.2534022 L82.2202231,11.4162271 L79.2965807,11.4162271 L79.2965807,8.23642027 L82.279479,8.23642027 L82.279479,7.39924514 L82.2798878,7.39924514 L82.279901,7.39923093 L82.279901,7.39923093 Z M91.5812748,7.39923093 L91.5812748,15.7657245 L94.0835745,15.7657245 C97.0664728,15.7657245 98.8474738,14.1035523 98.8474738,11.332576 C98.8474738,9.32408682 97.668455,7.39923093 94.2752418,7.39923093 L91.5812748,7.39923093 L91.5812748,7.39923093 Z M92.7492621,8.23640606 L94.3001729,8.23640606 C96.5135411,8.23640606 97.5601522,9.44426132 97.5601522,11.3082164 C97.5601522,13.7588446 96.4183225,14.9297573 94.048023,14.9297573 L92.7492621,14.9297573 L92.7492621,8.23642738 L92.7492621,8.23640606 L92.7492621,8.23640606 Z M88.9098002,7.39923093 L84.7589145,7.39923093 L84.7589145,15.7657245 L89.4263723,15.7657245 L89.4263723,14.9297679 L85.926909,14.9297679 L85.926909,11.7735107 L88.8493248,11.7735107 L88.8493248,10.937554 L85.926909,10.937554 L85.926909,8.23682881 L88.9098073,8.23682881 L88.9098073,7.39965368 L88.9098073,7.39924768 L88.9098002,7.39923093 L88.9098002,7.39923093 Z M105.235461,7.39923093 L101.085791,7.39923093 L101.085791,15.7657245 L105.753249,15.7657245 L105.753249,14.9297679 L102.252562,14.9297679 L102.252562,11.7735107 L105.176205,11.7735107 L105.176205,10.937554 L102.252562,10.937554 L102.252562,8.23682881 L105.235461,8.23682881 L105.235461,7.39965368 L105.235461,7.39924768 L105.235461,7.39923093 L105.235461,7.39923093 Z M118.130312,7.39923093 L114.699917,15.7657245 L115.831937,15.7657245 L116.733879,13.3041368 L119.94686,13.3041368 L120.813247,15.7657245 L122.161459,15.7657245 L119.021222,7.39923093 L118.130315,7.39923093 L118.130312,7.39923093 L118.130312,7.39923093 Z M117.06,12.4669297 C117.517305,11.3082023 117.961941,10.1490662 118.394723,8.64403234 L118.419244,8.64403234 C118.83936,10.1490804 119.248441,11.3082164 119.66978,12.4669297 L117.059997,12.4669297 L117.06,12.4669297 L117.06,12.4669297 Z M107.998496,15.7656926 L109.164845,15.7656926 L109.164845,12.300061 L110.40435,12.300061 L112.352085,15.9118679 L113.53233,15.5509323 L111.439111,11.9895001 C112.243377,11.4750958 112.846579,10.7816449 112.846579,9.55023995 C112.846579,8.10527916 111.77504,7.39924159 110.404762,7.39924159 L107.998907,7.39924159 L107.998907,15.7657351 L107.998499,15.7657351 L107.998496,15.7656926 L107.998496,15.7656926 Z M109.164845,8.23638474 L110.163232,8.23638474 C110.945432,8.23638474 111.595628,8.63182945 111.595628,9.65941942 C111.595628,10.3642385 111.31773,11.4640972 109.826077,11.4640972 L109.164845,11.4640972 L109.164845,8.23638474 L109.164845,8.23638474 Z M123.968181,15.7656926 L128.635639,15.7656926 L128.635639,14.929736 L125.134953,14.929736 L125.134953,7.39922027 L123.968603,7.39922027 L123.968603,15.7657139 L123.968194,15.7657139 L123.968181,15.7656926 L123.968181,15.7656926 Z M148.733714,22.0660432 L1.0060963,22.0660432 L1.0060963,1.09970094 L148.733714,1.09970094 L148.733714,22.0660432 L148.733714,22.0660432 Z" id="Shape" fill="#FFFFFF"></path>
                        </g>
                    </g>
                </g>
            </g>
        </g>
    </g>
</svg>