<?xml version="1.0" encoding="UTF-8" standalone="no"?>
<svg width="185px" height="185px" viewBox="0 0 185 185" version="1.1" xmlns="http://www.w3.org/2000/svg" xmlns:xlink="http://www.w3.org/1999/xlink" xmlns:sketch="http://www.bohemiancoding.com/sketch/ns">
    <!-- Generator: Sketch 3.0.4 (8053) - http://www.bohemiancoding.com/sketch -->
    <title>Camada_x0020_1</title>
    <desc>Created with Sketch.</desc>
    <defs></defs>
    <g id="Page-1" stroke="none" stroke-width="1" fill="none" fill-rule="evenodd" sketch:type="MSPage">
        <g id="Camada_x0020_1" sketch:type="MSLayerGroup" transform="translate(1.000000, 0.000000)">
            <rect id="Rectangle-path" fill="#022C54" sketch:type="MSShapeGroup" x="8" y="9" width="167.038" height="167.044"></rect>
            <g id="Camada_x0020_1_0" fill="#FFFFFF" sketch:type="MSShapeGroup">
                <path d="M183.56,184.57 L-0.025,184.57 L-0.025,0.475 L183.56,0.475 L183.56,184.57 L183.56,184.57 Z M175.03086,9.00414 L7.99286,9.00414 L7.99286,176.04714 L175.03086,176.04714 L175.03086,9.00414 L175.03086,9.00414 Z" id="_114196032"></path>
                <path d="M7.99,132.37 L7.99,147.2271 L175.028,144.59053 L175.028,132.33793 L175.028,132.331073 L171.30571,132.36993 C171.027996,119.71053 169.26342,81.14593 169.79142,78.52193 L175.02799,78.643073 L175.02799,78.7105016 L175.02799,74.9219316 L175.02799,74.966503 L169.32285,75.0567887 L169.165136,72.5699287 L175.027996,72.6145001 L175.027996,72.6385001 L175.027996,70.8887901 L175.027996,70.9127901 L169.203996,70.7162191 L169.382282,20.7208191 L155.082882,20.9859621 L155.196025,21.1196761 L153.492025,30.1848161 L153.213168,21.0156761 L151.178878,21.0533904 L151.193735,41.7733904 L152.776595,61.5859904 L151.736595,92.3870904 L152.805165,132.36999 L142.333165,132.36999 C131.369765,123.87742 114.212065,114.83399 103.578865,110.81799 C76.4165651,100.54829 56.2154651,108.29342 27.2188651,132.36999 L20.3548651,132.36999 L19.1948651,131.380276 L18.7125791,132.705986 L17.3171491,133.363129 L16.2942891,132.014559 L13.9959991,132.829416 L13.4394281,132.894559 L7.9902881,132.369988 L7.99,132.37 Z" id="_114196056"></path>
            </g>
        </g>
    </g>
</svg>